<svg xmlns="http://www.w3.org/2000/svg" viewBox="0 0 64 64" width="64" height="64">
  <defs>
    <linearGradient id="g" x1="0%" y1="0%" x2="100%" y2="100%">
      <stop offset="0%" stop-color="#4427EC"/>
      <stop offset="100%" stop-color="#A753EE"/>
    </linearGradient>
    <filter id="glow" x="-50%" y="-50%" width="200%" height="200%">
      <feGaussianBlur stdDeviation="2.5" result="blur"/>
      <feMerge>
        <feMergeNode in="blur"/>
        <feMergeNode in="SourceGraphic"/>
      </feMerge>
    </filter>
  </defs>
  <rect x="2" y="2" width="60" height="60" rx="14" fill="url(#g)" filter="url(#glow)"/>
  <path fill="#ffffff" d="M22 18h14c7 0 12 4 12 10 0 5-3 8-8 9 4 1 7 4 7 9 0 7-5 10-13 10H22V18zm9 8v10h5c3 0 5-2 5-5s-2-5-5-5h-5zm0 18v10h6c4 0 6-2 6-5s-2-5-6-5h-6z"/>
</svg>

